<?xml version="1.0" encoding="UTF-8"?>
<svg xmlns="http://www.w3.org/2000/svg" xmlns:xlink="http://www.w3.org/1999/xlink" width="35px" height="35px" viewBox="0 0 35 35" version="1.1">
<g id="surface1">
<path style=" stroke:none;fill-rule:nonzero;fill:rgb(21.176471%,21.960784%,32.54902%);fill-opacity:1;" d="M 19.539062 11.152344 C 19.679688 10.757812 20.242188 10.757812 20.382812 11.152344 L 20.765625 12.222656 C 20.8125 12.347656 20.910156 12.445312 21.039062 12.492188 L 22.125 12.871094 C 22.519531 13.011719 22.519531 13.5625 22.125 13.703125 L 21.039062 14.082031 C 20.910156 14.128906 20.8125 14.226562 20.765625 14.351562 L 20.382812 15.421875 C 20.242188 15.816406 19.679688 15.816406 19.539062 15.421875 L 19.15625 14.351562 C 19.109375 14.226562 19.011719 14.128906 18.882812 14.082031 L 17.796875 13.703125 C 17.402344 13.5625 17.402344 13.011719 17.796875 12.871094 L 18.882812 12.492188 C 19.011719 12.445312 19.109375 12.347656 19.15625 12.222656 Z M 19.539062 11.152344 "/>
<path style=" stroke:none;fill-rule:nonzero;fill:rgb(21.176471%,21.960784%,32.54902%);fill-opacity:1;" d="M 23.78125 15.914062 C 23.875 15.652344 24.25 15.652344 24.34375 15.914062 L 24.601562 16.628906 C 24.628906 16.710938 24.695312 16.777344 24.78125 16.808594 L 25.503906 17.0625 C 25.769531 17.152344 25.769531 17.523438 25.503906 17.617188 L 24.78125 17.867188 C 24.695312 17.898438 24.628906 17.964844 24.601562 18.046875 L 24.34375 18.761719 C 24.25 19.023438 23.875 19.023438 23.78125 18.761719 L 23.523438 18.046875 C 23.496094 17.964844 23.429688 17.898438 23.34375 17.867188 L 22.621094 17.617188 C 22.355469 17.523438 22.355469 17.152344 22.621094 17.0625 L 23.34375 16.808594 C 23.429688 16.777344 23.496094 16.710938 23.523438 16.628906 Z M 23.78125 15.914062 "/>
<path style=" stroke:none;fill-rule:nonzero;fill:rgb(21.176471%,21.960784%,32.54902%);fill-opacity:1;" d="M 25.914062 4.800781 C 26.117188 4.234375 26.929688 4.234375 27.132812 4.800781 L 27.832031 6.746094 C 27.894531 6.925781 28.039062 7.070312 28.226562 7.132812 L 30.195312 7.824219 C 30.769531 8.023438 30.769531 8.828125 30.195312 9.027344 L 28.226562 9.71875 C 28.039062 9.78125 27.894531 9.925781 27.832031 10.105469 L 27.132812 12.050781 C 26.929688 12.617188 26.117188 12.617188 25.914062 12.050781 L 25.214844 10.105469 C 25.152344 9.925781 25.007812 9.78125 24.820312 9.71875 L 22.851562 9.027344 C 22.277344 8.828125 22.277344 8.023438 22.851562 7.824219 L 24.820312 7.132812 C 25.007812 7.070312 25.152344 6.925781 25.214844 6.746094 Z M 25.914062 4.800781 "/>
<path style="fill-rule:nonzero;fill:rgb(21.176471%,21.960784%,32.54902%);fill-opacity:0.14902;stroke-width:1.5;stroke-linecap:round;stroke-linejoin:round;stroke:rgb(21.176471%,21.960784%,32.54902%);stroke-opacity:1;stroke-miterlimit:4;" d="M 3 13.459821 C 3 17.625 6.474107 21 10.759821 21 C 14.059821 21 16.877679 18.999107 18 16.178571 C 17.110714 16.583036 16.116964 16.810714 15.069643 16.810714 C 11.260714 16.810714 8.172321 13.810714 8.172321 10.108929 C 8.172321 8.560714 8.713393 7.135714 9.621429 6 C 5.874107 6.535714 3 9.672321 3 13.459821 Z M 3 13.459821 " transform="matrix(1.458333,0,0,1.458333,0,0)"/>
</g>
</svg>
